<svg width="100" height="101" viewBox="0 0 100 101" fill="none" xmlns="http://www.w3.org/2000/svg">
<path fill-rule="evenodd" clip-rule="evenodd" d="M84.3109 35.4278C84.3253 35.4051 84.3397 35.3825 84.354 35.3598C85.978 32.7797 87.0107 29.872 87.378 26.8455C87.5611 25.3102 87.5611 23.7587 87.378 22.2235C87.1924 20.6803 86.8198 19.1655 86.2683 17.7124C85.1828 14.9007 83.5182 12.3487 81.3827 10.2218C79.3824 8.22326 77.0907 6.53954 74.5857 5.22805C69.7195 2.66181 64.4677 1.38563 59.2465 0.997225C58.5918 0.947288 57.9315 0.91677 57.2851 0.89735C56.6386 0.87793 55.9451 0.87793 55.3902 0.87793L12 0.87793L12 100.878L55.4152 100.365C55.642 100.36 55.8792 100.358 56.1239 100.356C56.4954 100.352 56.8849 100.349 57.2795 100.337C57.9342 100.318 58.5862 100.284 59.2409 100.237C64.4733 99.857 69.714 98.5863 74.5801 96.0062C77.0856 94.6954 79.3774 93.0116 81.3772 91.0125C83.5127 88.8856 85.1772 86.3336 86.2627 83.5218C86.8152 82.069 87.1879 80.5541 87.3724 79.0108C87.5555 77.4756 87.5555 75.924 87.3724 74.3888C87.0039 71.3626 85.9713 68.4552 84.3485 65.8745C84.3185 65.8271 84.2885 65.7798 84.2582 65.7327C87.0394 61.3407 88.65 56.1898 88.65 50.6213C88.65 45.0528 87.0394 39.902 84.2583 35.5101C84.2759 35.4827 84.2935 35.4552 84.3109 35.4278ZM67.6277 37.0993C63.9583 38.7582 59.9856 39.6404 55.9589 39.6905L51.6464 39.7764C51.6303 39.7755 51.6142 39.7746 51.5981 39.7737C51.5823 39.7728 51.5664 39.7719 51.5506 39.771C47.22 39.5311 42.9257 38.845 38.736 37.7235C37.7095 37.4406 36.6997 37.1298 35.7342 36.7858C34.8049 36.4618 33.8952 36.0839 33.0098 35.6539C32.6491 35.4747 32.3073 35.2913 31.9993 35.1074C32.3073 34.9234 32.6491 34.74 33.0098 34.5608C33.8959 34.1325 34.8055 33.7546 35.7342 33.4289C36.6997 33.0821 37.7095 32.7686 38.736 32.4912C42.9257 31.3697 47.22 30.6836 51.5506 30.4437C53.1753 30.3506 54.8035 30.3456 56.4281 30.4285C56.6473 30.4596 56.8714 30.4757 57.0992 30.4757C57.1396 30.4757 57.1799 30.4757 57.2202 30.4759C57.4435 30.4913 57.6668 30.5083 57.8899 30.527C59.9431 30.694 61.9778 31.0393 63.9711 31.559C64.8232 31.7857 65.6625 32.0575 66.4856 32.3732C67.6794 32.886 68.8108 33.4932 69.8701 34.183C70.1333 34.3963 70.3791 34.6311 70.6045 34.8854C70.6584 34.9476 70.7063 35.0147 70.7474 35.0858C70.7021 35.1699 70.6477 35.2487 70.5851 35.321C70.474 35.4459 70.358 35.5662 70.2376 35.6816C69.4013 36.2117 68.5294 36.6854 67.6277 37.0993ZM76.9906 27.6273C76.9291 27.5805 76.8674 27.5339 76.8055 27.4876C76.0302 26.7319 75.1777 26.0572 74.2611 25.475C71.6726 23.7993 69.087 22.8338 66.5096 22.0459C63.9695 21.3086 61.3705 20.7916 58.7416 20.5006C56.1685 20.2248 53.5791 20.1321 50.9929 20.2232C49.7167 20.262 48.4544 20.3286 47.1949 20.4424C45.9354 20.5561 44.6869 20.7115 43.4385 20.8918C40.9298 21.2529 38.4451 21.7643 35.9978 22.4232C34.7466 22.7534 33.5065 23.1445 32.2497 23.6023C30.9432 24.0709 29.6649 24.6147 28.4211 25.2308C27.7692 25.5554 27.1061 25.9161 26.4264 26.3405C25.685 26.7978 24.9801 27.3116 24.3179 27.8775C23.6278 28.4591 23.0082 29.1184 22.4711 29.8417L22.5008 28.252C22.5897 22.8827 22.7334 17.5148 22.9951 12.1462L55.3874 11.5812C55.6075 11.5812 55.8068 11.5805 55.9947 11.5799C56.3398 11.5787 56.6464 11.5776 56.9716 11.5812C57.4737 11.5868 57.9731 11.6006 58.4697 11.6284C62.4425 11.8337 66.3571 12.7631 69.6862 14.4277C71.2827 15.2122 72.7519 16.2326 74.0447 17.4544C75.1985 18.5346 76.1134 19.8444 76.7302 21.2996C77.0115 21.9812 77.2072 22.695 77.3128 23.4247C77.4235 24.1668 77.444 24.9194 77.3738 25.6664C77.3079 26.3327 77.1792 26.9891 76.9906 27.6273ZM71.0028 46.216C71.185 46.1406 71.3667 46.0637 71.5478 45.9854C73.6009 45.0887 75.5525 43.9787 77.3707 42.6747C78.5326 45.1356 79.1702 47.8299 79.1702 50.6213C79.1702 53.4112 78.5333 56.104 77.3727 58.5638C76.0199 57.5922 74.5927 56.7286 73.1045 55.9811C72.199 55.4702 71.2622 55.0162 70.2993 54.6219C69.0377 54.0908 67.7453 53.6359 66.4292 53.2597C63.9033 52.5531 61.3209 52.0667 58.7111 51.8059C57.4238 51.67 56.1393 51.5979 54.8492 51.5535C53.5592 51.5091 52.2802 51.5146 51.0151 51.5535C48.4996 51.6361 45.9901 51.8491 43.4967 52.1916C40.9873 52.5271 38.4992 53.0069 36.0449 53.6287C34.8021 53.9532 33.5536 54.3111 32.2913 54.7384C30.9869 55.1813 29.7095 55.7001 28.4655 56.292C27.808 56.6027 27.1394 56.9495 26.4542 57.3601C25.7086 57.8069 24.9998 58.3126 24.3346 58.8721C23.6936 59.4005 23.1127 59.9965 22.6017 60.6491C22.5613 58.7552 22.5326 56.8606 22.5038 54.9658L22.5038 54.9645C22.483 53.5945 22.4622 52.2244 22.437 50.8543L22.3872 40.1997C22.9481 40.9698 23.6062 41.665 24.3457 42.2679C25.014 42.8193 25.7245 43.3174 26.4708 43.7577C27.1561 44.1655 27.8219 44.5123 28.4766 44.823C29.7258 45.4103 31.0089 45.9226 32.319 46.3572C33.573 46.79 34.827 47.1506 36.0699 47.4669C38.5234 48.0801 41.0094 48.5553 43.5162 48.8901C46.0068 49.2326 48.5135 49.4456 51.0262 49.5282C53.592 49.6279 56.1617 49.5491 58.7166 49.2924C61.3238 49.0351 63.9036 48.5506 66.4264 47.8442C67.9476 47.3997 69.4746 46.8947 71.0028 46.216ZM22.9279 71.9384C22.948 72.4492 22.9693 72.9599 22.9918 73.4705C23.1774 78.5144 23.4151 83.5571 23.7498 88.6002L55.3486 89.0261L56.1809 89.04H56.941C57.4321 89.04 57.9232 89.0399 58.4142 89.0094C62.3204 88.8457 66.1823 87.9857 69.4532 86.3822C71.0186 85.635 72.4634 84.6578 73.7395 83.483C74.8727 82.4579 75.7798 81.2079 76.4028 79.8126C76.6847 79.1604 76.8832 78.4753 76.9938 77.7735C77.111 77.0565 77.1408 76.3281 77.0825 75.604C77.0301 74.9884 76.9223 74.3807 76.7615 73.788C76.5951 73.9123 76.4273 74.035 76.2582 74.1561C75.6322 74.711 74.9617 75.2158 74.2527 75.665C71.6671 77.3296 69.0786 78.3006 66.5013 79.083C63.9654 79.8158 61.3711 80.3291 58.7471 80.6171C56.1762 80.8971 53.5884 80.9899 51.004 80.8946C45.9313 80.7448 40.8925 80.0131 35.9867 78.714C33.3705 78.047 30.8284 77.1175 28.3989 75.9397C27.747 75.6123 27.0839 75.2516 26.4014 74.8299C25.6596 74.3721 24.9538 73.8583 24.2902 73.293C23.7991 72.879 23.3436 72.4259 22.9279 71.9384ZM51.2149 61.4108V61.4161L55.9562 61.5549C59.9749 61.6419 63.9321 62.561 67.5777 64.2543C68.6847 64.7738 69.7447 65.3854 70.7468 66.082C70.7065 66.151 70.6598 66.2162 70.6073 66.2767C70.1773 66.7603 69.6747 67.174 69.1175 67.503C68.3649 67.9682 67.572 68.3647 66.7482 68.6876C65.8429 69.0489 64.9164 69.3546 63.9739 69.6031C61.9803 70.1215 59.9456 70.4668 57.8926 70.6352C55.7841 70.8117 53.6658 70.8395 51.5533 70.7184C47.2228 70.4786 42.9285 69.7924 38.7388 68.671C37.7123 68.388 36.7025 68.0773 35.737 67.7332C34.8076 67.4093 33.898 67.0313 33.0126 66.6013C32.6518 66.4221 32.3101 66.2387 32.0021 66.0548C32.3101 65.8708 32.6518 65.6874 33.0126 65.5083C33.8985 65.0794 34.8081 64.7015 35.737 64.3763C36.7025 64.0295 37.7123 63.716 38.7388 63.4386C42.8193 62.3464 46.999 61.6671 51.2149 61.4108Z" fill="#EFDFCB"/>
  <style>
    path {
      fill: black;
    }
    @media (prefers-color-scheme: dark) {
      path {
        fill: #EFDFCB;
      }
    }
  </style>
</svg>
